<svg xmlns="http://www.w3.org/2000/svg" viewBox="0 0 100 99.36"><defs><style>.cls-1{fill:#fff;}</style></defs><g id="Capa_2" data-name="Capa 2"><g id="Capa_1-2" data-name="Capa 1"><path class="cls-1" d="M0,64.55c1.7-7.28,5.45-13,12.8-16.25-3-4.19-4.86-8.6-3.5-13.8a14.57,14.57,0,0,1,23.86-7.41c5.89,5.2,6.3,12.2,1.12,21.14,2.16,1.17,4.42,2.22,6.12,4.05,1,1,1.62.55,2.55-.1,4.67-3.25,9.43-3.25,14.1,0,.93.65,1.58,1.15,2.55.1,1.7-1.83,4-2.88,6.12-4.05C60.39,39,61,31.81,67.37,26.67a14.47,14.47,0,0,1,18.88.43c6.06,5.46,6.45,12.73,1,21.16,7.13,3.16,11,8.89,12.75,16.29V97.66a5.53,5.53,0,0,1-4.51,1.7q-45.49,0-91,0A5.53,5.53,0,0,1,0,97.66ZM5.69,78.83c0,4,.08,8.1,0,12.15,0,2,.45,2.81,2.62,2.77,7.31-.12,14.62-.1,21.93,0,1.82,0,2.31-.62,2.25-2.34-.11-3.15-.09-6.3,0-9.45.1-4.37,1.56-8.33,5.11-10.9C40,69.32,40.81,68,39.14,65.3a6.17,6.17,0,0,1-.67-3.91c.44-2.83-1.12-4.35-3.06-5.85-4.25-3.3-9.21-3.16-14.18-3.08C12.22,52.61,6,58.68,5.72,67.7,5.61,71.4,5.7,75.12,5.69,78.83Zm88.61.56c0-3.94.1-7.88,0-11.81C94.06,60.65,90,54.88,84,53.27a28.9,28.9,0,0,0-15,0c-4.89,1.29-6.93,4-7.38,9.23a8.35,8.35,0,0,1-1.25,4.16c-1.18,1.67-.52,2.39.94,3.36a13.69,13.69,0,0,1,5.95,9c.8,4,.26,8.07.31,12.1,0,1.79.36,2.6,2.39,2.57,7.31-.11,14.62-.1,21.93,0,2,0,2.54-.68,2.5-2.55C94.24,87.26,94.3,83.32,94.3,79.39ZM49.83,93.71c3.14,0,6.29-.07,9.43,0,1.76.06,2.73-.33,2.64-2.37-.13-3.14.09-6.3-.08-9.43C61.53,76.79,58.19,73.44,53,73A39.42,39.42,0,0,0,47,73c-5.32.42-8.59,3.85-8.82,9.22-.13,2.92.06,5.84-.07,8.76-.08,2,.51,2.85,2.64,2.74C43.76,93.59,46.79,93.71,49.83,93.71ZM14.62,38.05a9,9,0,0,0,8.82,8.84,9.21,9.21,0,0,0,8.88-8.83,9.07,9.07,0,0,0-9-9A8.92,8.92,0,0,0,14.62,38.05Zm70.76,0a8.93,8.93,0,0,0-8.7-8.91,9.08,9.08,0,0,0-9,9,9.2,9.2,0,0,0,8.93,8.78A9,9,0,0,0,85.38,38ZM49.94,55.53a5.86,5.86,0,1,0,6,6A6,6,0,0,0,49.94,55.53Z"/><path class="cls-1" d="M65.51,10.64c-.05,3.55-1.64,6.47-3.79,9.16a43,43,0,0,1-9.27,8.28c-1.31.91-2.74,1.35-4.1.46C43,25.07,38.14,21.1,35.41,15.15a11.31,11.31,0,0,1,2.2-12.52C41-.54,44.84-.69,48.81,1.36a2.46,2.46,0,0,0,2.45-.05C58.91-2,65.61,2.46,65.51,10.64Zm-5.7-.2c-.22-1.95-.7-3.69-2.62-4.47s-3.26.17-4.39,1.56c-1.83,2.26-3.63,2.39-5.53.08-1.21-1.49-2.71-2.53-4.66-1.54s-2.55,3-2.33,5.15a9.6,9.6,0,0,0,2.5,5c6,7.33,8.67,7.3,14.57-.16A9.6,9.6,0,0,0,59.81,10.44Z"/></g></g></svg>