<svg xmlns="http://www.w3.org/2000/svg" viewBox="0 0 92.85 100"><defs><style>.cls-1{fill:#ff001f;}</style></defs><g id="Capa_2" data-name="Capa 2"><g id="Capa_1-2" data-name="Capa 1"><path class="cls-1" d="M46.48,100c-7.95,0-15.9,0-23.85,0-7.43,0-11.87-4.42-11.88-11.79,0-17.84,0-35.69,0-53.53,0-2.11-.56-2.89-2.67-2.64a30.55,30.55,0,0,1-4.06,0C1.36,32,.1,30.73,0,28c0-1.86,0-3.72,0-5.58,0-5.17,2.86-8,8-8.06,6.18,0,12.35-.05,18.53,0,1.59,0,2.15-.36,2.16-2.09C28.78,3.86,32.81,0,41.29,0c3.81,0,7.62,0,11.42,0,7,0,11.53,4.43,11.41,11.39,0,2.56.75,3,3.11,3,5.74-.17,11.5-.07,17.25-.05,5.47,0,8.31,2.81,8.34,8.22,0,1.86.05,3.72,0,5.58-.09,2.6-1.37,3.85-3.92,3.91a31,31,0,0,1-4.31,0c-2-.23-2.53.57-2.53,2.53.08,17.09,0,34.17,0,51.25A41.24,41.24,0,0,1,82,90.11C81.41,96,77,99.94,70.83,100,62.71,100,54.59,100,46.48,100ZM75.06,61.41c0-9-.07-17.92,0-26.88,0-2-.56-2.53-2.54-2.52q-26.13.1-52.25,0c-1.94,0-2.58.43-2.57,2.5.08,17.75,0,35.51.05,53.26,0,4,1.17,5.1,5.16,5.1H69.87c4.08,0,5.18-1.14,5.18-5.33Q75.07,74.47,75.06,61.41ZM46.16,25.06H51c10.82,0,21.65,0,32.47,0,1.68,0,2.4-.32,2.34-2.2-.06-2.06-1.41-1.51-2.45-1.51q-36.92,0-73.82,0c-.42,0-.85,0-1.27,0-.69,0-1.08.23-1.14,1-.15,1.69-.06,2.77,2.27,2.75C21.64,25,33.9,25.06,46.16,25.06Zm.14-10.74c3,0,6.09,0,9.13,0,.69,0,1.49.24,1.81-.87,1-3.5-1-6.29-4.73-6.31-4,0-7.95,0-11.93,0-3.78,0-5,1.43-5,5.3,0,1.4.38,2,1.85,1.92C40.38,14.26,43.34,14.32,46.3,14.32Z"/><path class="cls-1" d="M60.57,50.2A3.7,3.7,0,0,1,59.17,53C57,55.1,54.91,57.3,52.69,59.38c-1,1-1.12,1.6,0,2.61,2.22,2.07,4.34,4.26,6.46,6.44,1.77,1.81,2,3.89.56,5.38s-3.63,1.46-5.55-.42c-2.11-2.07-4.26-4.11-6.24-6.29-1.17-1.29-1.89-1.12-3,.05-1.89,2-3.92,4-5.9,5.94s-4.14,2.39-5.73.86S32,70.2,34.12,68c2-2,3.89-4,5.94-5.89,1.1-1,1.27-1.69.06-2.79-2.25-2-4.35-4.25-6.47-6.43-1.75-1.81-1.87-3.9-.4-5.37s3.58-1.34,5.38.4c2.18,2.12,4.38,4.23,6.43,6.47,1.09,1.2,1.73,1.07,2.77,0C50,52,52.34,49.8,54.62,47.54a3.43,3.43,0,0,1,4-.69A3.21,3.21,0,0,1,60.57,50.2Z"/></g></g></svg>