<svg xmlns="http://www.w3.org/2000/svg" viewBox="0 0 100 89.64"><defs><style>.cls-1{fill:#fff;}</style></defs><g id="Capa_2" data-name="Capa 2"><g id="Capa_1-2" data-name="Capa 1"><path class="cls-1" d="M0,82.37V23.7c1.85-5.26,5.62-7.25,11.1-7.08,7.17.23,14.35,0,21.52.09,1.45,0,2-.25,2.08-1.9a15.31,15.31,0,0,1,30.6,0c.07,1.64.64,1.9,2.08,1.89,7.1-.06,14.21.15,21.3-.09,5.54-.19,9.44,1.7,11.32,7.08V82.37c-2.35,5.9-4.38,7.26-10.89,7.27H10.9C4.4,89.63,2.34,88.26,0,82.37ZM50.23,22.45H10.48c-3.79,0-4.66.9-4.66,4.74V79.37c0,3.6.84,4.46,4.42,4.46h79.5c3.59,0,4.44-.86,4.44-4.44V27.2c0-3.93-.84-4.75-4.87-4.75ZM50,16.68c2.59,0,5.18-.05,7.76,0,1.29,0,1.83-.26,1.79-1.71a9.56,9.56,0,0,0-19.1,0c0,1.46.51,1.75,1.79,1.71C44.83,16.63,47.41,16.68,50,16.68Z"/><path class="cls-1" d="M50.24,43.29H82a10.88,10.88,0,0,1,2.21.1,2.3,2.3,0,0,1,0,4.57,12,12,0,0,1-2,.1c-5.77,0-11.54,0-17.31,0-1.44,0-2,.38-1.87,1.85.11,2.07,0,4.14,0,6.21,0,2.46-.77,3.23-3.14,3.24-6.59,0-13.17,0-19.76,0-2.08,0-3-.89-2.92-2.94s-.12-4.16.05-6.22C37.42,48.36,36.66,48,35,48c-5.7.09-11.4,0-17.09,0a9.48,9.48,0,0,1-2.2-.19A2.12,2.12,0,0,1,14,45.61a2.07,2.07,0,0,1,1.66-2.1,11.38,11.38,0,0,1,2.41-.21Zm-.17,11.5h3.32c5,0,5,0,4.93-5,0-1.33-.34-1.8-1.74-1.76-3.32.09-6.65,0-10,0-5,0-5,0-4.83,5.08,0,1.24.36,1.7,1.63,1.65C45.63,54.72,47.85,54.79,50.07,54.79Z"/></g></g></svg>