<svg xmlns="http://www.w3.org/2000/svg" viewBox="0 0 100 81.3"><defs><style>.cls-1{fill:#fff;}</style></defs><g id="Capa_2" data-name="Capa 2"><g id="Capa_1-2" data-name="Capa 1"><path class="cls-1" d="M100,16.46V72a4.44,4.44,0,0,1-3.9,2c-5.77.31-11.53.67-17.28,1.15-9.31.78-18.5,2.24-27.22,5.81a4.18,4.18,0,0,1-3.41-.08,70.58,70.58,0,0,0-14-4C24.16,74.94,14,74.62,3.91,74A4.5,4.5,0,0,1,0,72V16.46A4.22,4.22,0,0,1,4.16,14.6c2.22.17,4.45,0,6.66.19,1.43.11,1.78-.39,1.74-1.72-.08-3,0-6.08,0-9.11C12.57.77,13.82-.35,17,.09,29,1.77,40.12,5.62,49.12,14.2c.69.67,1.07.66,1.76,0C59.88,5.62,71,1.77,83,.09,86.18-.35,87.43.77,87.46,4c0,2.89.08,5.78,0,8.66-.05,1.52.37,2.11,2,2,2.14-.13,4.3.07,6.44-.05A4.3,4.3,0,0,1,100,16.46ZM47,71.11c0-.78.1-1.13.1-1.47q0-23.78,0-47.53A3.67,3.67,0,0,0,46,19.34c-7.26-7.49-16.48-11-26.43-13-1.37-.28-1.22.66-1.22,1.46q0,23.66,0,47.31c0,1,.17,1.55,1.34,1.84A62.67,62.67,0,0,1,47,71.11Zm5.9.09a61.48,61.48,0,0,1,26.75-14c1.67-.41,2-1.15,2-2.7-.05-15.11,0-30.21,0-45.31,0-3,0-3.08-2.94-2.43-9.1,2-17.48,5.45-24.26,12.12a4.77,4.77,0,0,0-1.55,3.7c.05,15.4,0,30.8,0,46.2Zm-15.28,0c-.4-.3-.79-.63-1.21-.9a57.59,57.59,0,0,0-19.58-8C13,61.45,12.54,61,12.54,57V25.41c0-5.11,0-5.08-5.18-4.94-1.11,0-1.57.29-1.56,1.49q0,22.44,0,44.87c0,1.12.34,1.55,1.5,1.6A246.15,246.15,0,0,1,37.62,71.21Zm24.8.23c.16,0,.31.11.43.08,9.67-2,19.48-2.64,29.31-3,1.69-.07,2.07-.61,2.06-2.21-.06-13.85,0-27.69,0-41.54,0-4.42,0-4.33-4.42-4.4-1.83,0-2.36.47-2.34,2.34.09,11.55,0,23.1,0,34.64,0,3.55-.57,4.23-4,4.93A57,57,0,0,0,64.05,70C63.45,70.42,62.67,70.62,62.42,71.44Z"/><path class="cls-1" d="M40.58,29.69a2.77,2.77,0,0,1-4.16,2.6,32.7,32.7,0,0,0-8.78-3.55c-1.57-.36-2.19-1.72-1.88-3.31a2.59,2.59,0,0,1,3.06-2.26,24,24,0,0,1,10.76,4.4A2.36,2.36,0,0,1,40.58,29.69Z"/><path class="cls-1" d="M28.76,39.76A25.11,25.11,0,0,1,39.69,44.5a2.44,2.44,0,0,1,.37,3.42c-.81,1.28-2.07,1.89-3.43,1.2a49.13,49.13,0,0,0-9.37-3.93c-1.41-.39-1.84-1.89-1.48-3.33S27.2,39.85,28.76,39.76Z"/><path class="cls-1" d="M62.42,32.61A2.65,2.65,0,0,1,59.64,31a2.71,2.71,0,0,1,.81-3.41,24,24,0,0,1,10.76-4.38,2.56,2.56,0,0,1,3,2.07c.35,1.42,0,2.89-1.48,3.31a38.82,38.82,0,0,0-9.57,3.93A1.79,1.79,0,0,1,62.42,32.61Z"/><path class="cls-1" d="M74.29,43.28a2.48,2.48,0,0,1-2.09,2.13,31.38,31.38,0,0,0-8.15,3.42c-1.73,1-3.38.54-4.18-1a2.76,2.76,0,0,1,1.24-4,27.38,27.38,0,0,1,9.56-4C72.86,39.53,74.31,40.69,74.29,43.28Z"/></g></g></svg>