<svg xmlns="http://www.w3.org/2000/svg" viewBox="0 0 72.94 100"><defs><style>.cls-1{fill:#fff;}</style></defs><g id="Capa_2" data-name="Capa 2"><g id="Capa_1-2" data-name="Capa 1"><path class="cls-1" d="M72.92,44.59c0-5.93-6.19-9.8-11.76-7.7-.51.19-.67.11-.91-.36a8.69,8.69,0,0,0-11.54-4c-.52.25-.71.17-1-.27A8.56,8.56,0,0,0,38.45,29c-.8.22-.84,0-.83-.69.13-6.47.26-12.95.35-19.43a8.7,8.7,0,1,0-17.4-.26c-.23,11.25-.4,22.49-.6,33.74,0,2.08-.08,4.16-.13,6.46L16.1,43.67a14.39,14.39,0,0,0-3.88-3.82A7.69,7.69,0,0,0,.18,45a14.2,14.2,0,0,0,1.45,8.49A83.89,83.89,0,0,0,16.79,76.21C18.56,78.14,20.4,80,22.17,82A6.8,6.8,0,0,1,24,87c-.13,3-.14,6.07-.18,9.1,0,2.16,1,3.22,3.13,3.26l35.42.61c2.16,0,3.21-1,3.26-3.15,0-3,.11-6,.15-9a19.68,19.68,0,0,1,2.42-9.47A32,32,0,0,0,72.41,65.6C73,58.61,73,51.59,72.92,44.59ZM60.2,90.71c-.08,1-.06,2-.05,3,0,.51-.11.72-.68.71q-14.7-.27-29.4-.51h-.29c-.34,0-.33-.25-.33-.47,0-1.21.07-2.41.06-3.62,0-.71.5-.46.8-.45q6.93.09,13.86.22c5.06.09,10.12.2,15.18.25C60.05,89.83,60.26,90,60.2,90.71ZM67,64.52a23.27,23.27,0,0,1-1.18,5.74,46.91,46.91,0,0,1-3.09,6.8,19.56,19.56,0,0,0-2,6.46c-.09.58-.26.79-.88.78Q44.88,84,30,83.78c-.4,0-.71,0-.85-.52a14.52,14.52,0,0,0-4-6.29A103.44,103.44,0,0,1,13.83,63.69a65.46,65.46,0,0,1-7.68-13.9A7.41,7.41,0,0,1,5.65,46,2.14,2.14,0,0,1,9,44.4a7.31,7.31,0,0,1,2.31,2.15c2.76,3.82,5.5,7.65,8.26,11.48a10.12,10.12,0,0,0,.82,1,2.79,2.79,0,0,0,3.05.82,2.67,2.67,0,0,0,1.82-2.56c.11-4.92.19-9.83.28-14.75q.3-16.86.6-33.73a3.16,3.16,0,1,1,6.3.22c-.1,5.13-.18,10.25-.27,15.37Q32,34.25,31.81,44A2.79,2.79,0,0,0,37,45.72a3,3,0,0,0,.36-1.62c0-2.14.07-4.29.11-6.44a3.21,3.21,0,0,1,3.18-3.4,3.16,3.16,0,0,1,3.13,3.44c0,3-.11,6-.15,9a2.78,2.78,0,0,0,5.24,1.52,3.06,3.06,0,0,0,.32-1.54c0-2.09.06-4.18.12-6.27A3.15,3.15,0,0,1,55,38.55a3.39,3.39,0,0,1,.63,2.16c-.06,2.83-.1,5.65-.14,8.48a2.79,2.79,0,1,0,5.55.06c0-1.41,0-2.82.07-4.23a3.18,3.18,0,0,1,3.16-3.16A3.08,3.08,0,0,1,67.4,45C67.27,51.52,67.36,58,67,64.52Z"/></g></g></svg>